<?xml version="1.0" encoding="iso-8859-1"?>
<!-- Generator: Adobe Illustrator 19.0.0, SVG Export Plug-In . SVG Version: 6.00 Build 0)  -->
<svg version="1.1" id="Capa_1" xmlns="http://www.w3.org/2000/svg" xmlns:xlink="http://www.w3.org/1999/xlink" x="0px" y="0px"
	 viewBox="0 0 512 512" style="enable-background:new 0 0 512 512;" xml:space="preserve">
<g>
	<path style="fill:#F9D366;" d="M47.297,216.545c-4.434,0-8.027-3.594-8.027-8.027v-21.271c0-4.433,3.593-8.027,8.027-8.027
		s8.027,3.594,8.027,8.027v21.272C55.324,212.951,51.732,216.545,47.297,216.545z"/>
	<path style="fill:#F9D366;" d="M47.297,273.816c-4.434,0-8.027-3.594-8.027-8.027v-21.272c0-4.433,3.593-8.027,8.027-8.027
		s8.027,3.594,8.027,8.027v21.272C55.324,270.222,51.732,273.816,47.297,273.816z"/>
	<path style="fill:#F9D366;" d="M86.568,234.545H65.297c-4.434,0-8.027-3.594-8.027-8.027c0-4.433,3.593-8.027,8.027-8.027h21.271
		c4.434,0,8.027,3.594,8.027,8.027C94.596,230.951,91.002,234.545,86.568,234.545z"/>
	<path style="fill:#F9D366;" d="M29.299,234.545H8.027c-4.434,0-8.027-3.594-8.027-8.027c0-4.433,3.593-8.027,8.027-8.027h21.272
		c4.434,0,8.027,3.594,8.027,8.027C37.326,230.951,33.733,234.545,29.299,234.545z"/>
	<path style="fill:#F9D366;" d="M486.607,91.655l18.753-3.802c8.853-1.795,8.853-14.448,0-16.243l-18.753-3.802
		c-18.48-3.747-32.923-18.19-36.669-36.669l-3.802-18.753c-1.795-8.853-14.448-8.853-16.243,0l-3.802,18.753
		c-3.747,18.48-18.19,32.923-36.669,36.669l-18.753,3.802c-8.853,1.795-8.853,14.448,0,16.243l18.753,3.802
		c18.48,3.747,32.923,18.19,36.669,36.669l3.802,18.753c1.795,8.853,14.448,8.853,16.243,0l3.802-18.753
		C453.685,109.845,468.128,95.402,486.607,91.655z"/>
</g>
<path style="fill:#81DBBA;" d="M378.71,184.856v61.124c0,25.997-12.576,50.368-33.746,65.438l-0.203,0.139
	c-13.411,9.536-21.374,24.981-21.374,41.442v145.228H169.832V329.206c-11.634-14.342-20.625-30.482-26.704-47.639
	c-6.09-17.157-9.258-35.352-9.258-53.814v-93.961c0-14.235,11.538-25.773,25.773-25.773c7.117,0,13.561,2.89,18.227,7.546
	c4.656,4.666,7.546,11.11,7.546,18.227l87.411,48.152c1.402-3.275,3.414-6.229,5.897-8.712c5.02-5.02,11.944-8.124,19.608-8.124
	h60.643C369.88,165.109,378.71,173.95,378.71,184.856z"/>
<path style="fill:#56AB8F;" d="M195.515,329.209L195.515,329.209c-23.266-28.695-35.963-64.514-35.963-101.455V192.55v-58.755
	c0-9.556,5.205-17.891,12.93-22.342c-3.782-2.179-8.164-3.431-12.844-3.431c-14.234,0-25.774,11.539-25.774,25.774v58.755v35.203
	c0,36.941,12.697,72.761,35.963,101.455v27.113v141.905h25.686V356.321v-27.113H195.515z"/>
<path style="fill:#81DBBA;" d="M159.639,108.022L159.639,108.022c-14.234,0-25.774,11.539-25.774,25.774v50.07
	c0,14.234,11.539,25.774,25.774,25.774l0,0c14.234,0,25.774-11.539,25.774-25.774v-50.07
	C185.413,119.562,173.873,108.022,159.639,108.022z"/>
<path style="fill:#56AB8F;" d="M156.261,183.866v-50.07c0-10.221,5.951-19.052,14.576-23.22c-3.386-1.635-7.185-2.554-11.197-2.554
	l0,0c-14.234,0-25.774,11.539-25.774,25.774v50.07c0,14.234,11.539,25.774,25.774,25.774l0,0c4.013,0,7.811-0.917,11.197-2.554
	C162.211,202.918,156.261,194.087,156.261,183.866z"/>
<g>
	<path style="fill:#81DBBA;" d="M236.96,112.208c0-14.234-11.539-25.774-25.774-25.774l0,0c-14.234,0-25.774,11.539-25.774,25.774
		v70.114c0,14.234,11.539,25.774,25.774,25.774l0,0c14.234,0,25.774-11.539,25.774-25.774V112.208z"/>
	<path style="fill:#81DBBA;" d="M288.507,105.298c0-15.259-11.539-27.63-25.774-27.63l0,0c-14.234,0-25.774,12.37-25.774,27.63
		v75.166c0,15.259,11.539,27.63,25.774,27.63l0,0c14.234,0,25.774-12.37,25.774-27.63V105.298z"/>
</g>
<path style="fill:#56AB8F;" d="M260.101,180.464v-75.166c0-10.797,5.781-20.142,14.203-24.687
	c-3.481-1.878-7.409-2.942-11.571-2.942l0,0c-14.234,0-25.774,12.37-25.774,27.63v75.166c0,15.26,11.539,27.63,25.774,27.63l0,0
	c4.162,0,8.09-1.064,11.571-2.942C265.882,200.605,260.101,191.261,260.101,180.464z"/>
<path style="fill:#81DBBA;" d="M340.053,111.854c0-15.259-11.539-27.63-25.774-27.63l0,0c-14.234,0-25.774,12.37-25.774,27.63
	v75.166c0,15.259,11.539,27.63,25.774,27.63l0,0c14.234,0,25.774-12.37,25.774-27.63V111.854z"/>
<g>
	<path style="fill:#56AB8F;" d="M311.648,187.018v-75.166c0-10.797,5.781-20.142,14.203-24.687
		c-3.481-1.878-7.409-2.942-11.571-2.942l0,0c-14.234,0-25.774,12.37-25.774,27.63v75.166c0,15.26,11.539,27.63,25.774,27.63l0,0
		c4.162,0,8.09-1.064,11.571-2.942C317.429,207.161,311.648,197.816,311.648,187.018z"/>
	<path style="fill:#56AB8F;" d="M208.788,182.323v-70.115c0-10.024,5.728-18.707,14.085-22.968c-3.51-1.79-7.479-2.805-11.688-2.805
		c-14.234,0-25.774,11.539-25.774,25.774v70.115c0,14.234,11.539,25.774,25.774,25.774c4.209,0,8.179-1.016,11.688-2.805
		C214.517,201.029,208.788,192.347,208.788,182.323z"/>
</g>
<path style="fill:#81DBBA;" d="M342.944,220.575h-44.617c-15.315,0-27.731-12.415-27.731-27.731l0,0
	c0-15.315,12.415-27.731,27.731-27.731h60.646c10.904,0,19.743,8.84,19.743,19.743v35.719h-35.771V220.575z"/>
<g>
	<path style="fill:#56AB8F;" d="M296.282,192.844L296.282,192.844c0-15.315,12.415-27.73,27.731-27.73h-25.686
		c-15.315,0-27.73,12.415-27.73,27.73l0,0c0,15.316,12.415,27.731,27.73,27.731h25.686
		C308.697,220.575,296.282,208.16,296.282,192.844z"/>
	<path style="fill:#56AB8F;" d="M246.118,284.191L246.118,284.191c-4.918,0-8.679-4.383-7.943-9.245
		c4.473-29.549,30.043-52.268,60.819-52.268h5.092v-2.105h16.054v10.132c0,4.433-3.594,8.027-8.027,8.027h-13.12
		c-22.723,0-41.604,16.759-44.936,38.565C253.455,281.247,250.112,284.191,246.118,284.191z"/>
	<path style="fill:#56AB8F;" d="M224.246,411.833c0,20.207-16.375,36.593-36.593,36.593c-6.475,0-12.555-1.68-17.82-4.624v-63.929
		c5.266-2.954,11.345-4.634,17.82-4.634C207.87,375.24,224.246,391.626,224.246,411.833z"/>
	<circle style="fill:#56AB8F;" cx="266.46" cy="353.902" r="21.344"/>
</g>
<path style="fill:#9966CC;" d="M488.771,506.253H17.723c-4.434,0-8.027-3.594-8.027-8.027c0-4.433,3.593-8.027,8.027-8.027h471.048
	c4.434,0,8.027,3.594,8.027,8.027C496.799,502.659,493.205,506.253,488.771,506.253z"/>
<g>
	<path style="fill:#56AB8F;" d="M283.732,434.095c-6.85,0-10.509-8.432-5.902-13.47c2.144-2.344,5.625-3.185,8.608-2.118
		c3.438,1.23,5.623,4.718,5.282,8.345C291.339,430.901,287.791,434.095,283.732,434.095z"/>
	<path style="fill:#56AB8F;" d="M176.007,285.699c-7.414,0-10.869-9.719-4.975-14.328c5.775-4.516,14.34,0.748,12.817,7.953
		C183.074,282.993,179.766,285.699,176.007,285.699z"/>
</g>
<g>
	<path style="fill:#EDE6F5;" d="M130.777,432.344c-4.434,0-8.027-3.594-8.027-8.027V347.26c0-4.433,3.593-8.027,8.027-8.027
		s8.027,3.594,8.027,8.027v77.057C138.804,428.75,135.21,432.344,130.777,432.344z"/>
	<path style="fill:#EDE6F5;" d="M405.293,419.502c-4.434,0-8.027-3.594-8.027-8.027v-94.908c0-4.433,3.593-8.027,8.027-8.027
		s8.027,3.594,8.027,8.027v94.908C413.32,415.908,409.726,419.502,405.293,419.502z"/>
	<path style="fill:#EDE6F5;" d="M405.293,297.834c-4.434,0-8.027-3.594-8.027-8.027v-58.132c0-4.433,3.593-8.027,8.027-8.027
		s8.027,3.594,8.027,8.027v58.132C413.32,294.24,409.726,297.834,405.293,297.834z"/>
	<path style="fill:#EDE6F5;" d="M366.765,450.003c-4.434,0-8.027-3.594-8.027-8.027V340.837c0-4.433,3.593-8.027,8.027-8.027
		c4.434,0,8.027,3.594,8.027,8.027v101.138C374.792,446.409,371.198,450.003,366.765,450.003z"/>
</g>
<g>
</g>
<g>
</g>
<g>
</g>
<g>
</g>
<g>
</g>
<g>
</g>
<g>
</g>
<g>
</g>
<g>
</g>
<g>
</g>
<g>
</g>
<g>
</g>
<g>
</g>
<g>
</g>
<g>
</g>
</svg>
