<?xml version="1.0" encoding="iso-8859-1"?>
<!-- Generator: Adobe Illustrator 19.0.0, SVG Export Plug-In . SVG Version: 6.00 Build 0)  -->
<svg version="1.1" id="Capa_1" xmlns="http://www.w3.org/2000/svg" xmlns:xlink="http://www.w3.org/1999/xlink" x="0px" y="0px"
	 viewBox="0 0 512 512" style="enable-background:new 0 0 512 512;" xml:space="preserve">
<path style="fill:#F9D366;" d="M477.056,104.123l17.764-3.601c8.387-1.7,8.387-13.686,0-15.386l-17.764-3.601
	c-17.505-3.55-31.187-17.231-34.736-34.736l-3.601-17.764c-1.7-8.387-13.686-8.387-15.386,0l-3.601,17.764
	c-3.55,17.505-17.231,31.187-34.736,34.736l-17.764,3.601c-8.387,1.7-8.387,13.686,0,15.386l17.764,3.601
	c17.505,3.55,31.187,17.231,34.736,34.736l3.601,17.764c1.7,8.387,13.686,8.387,15.386,0l3.601-17.764
	C445.87,121.354,459.551,107.673,477.056,104.123z"/>
<path style="fill:#81DBBA;" d="M340.968,226.245h-42.265c-14.507,0-26.269-11.761-26.269-26.269l0,0
	c0-14.507,11.761-26.269,26.269-26.269h57.448c10.329,0,18.702,8.373,18.702,18.702v57.907c0,24.618-11.914,47.712-31.974,61.981
	l-0.186,0.132c-12.707,9.038-20.253,23.667-20.253,39.26l0,0v137.569H176.98V354.835v-25.683l0,0
	c-22.039-27.182-34.067-61.113-34.067-96.107v-33.347v-55.657c0-13.483,10.93-24.415,24.415-24.415l0,0
	c13.483,0,24.415,10.93,24.415,24.415"/>
<path style="fill:#56AB8F;" d="M201.311,329.152L201.311,329.152c-22.039-27.182-34.067-61.113-34.067-96.106v-33.347v-55.657
	c0-9.052,4.93-16.948,12.248-21.164c-3.583-2.064-7.734-3.25-12.166-3.25c-13.483,0-24.415,10.93-24.415,24.415v55.657v33.347
	c0,34.993,12.027,68.924,34.067,96.106v25.683v134.423h24.332V354.835v-25.683H201.311z"/>
<path style="fill:#81DBBA;" d="M167.328,119.627L167.328,119.627c-13.483,0-24.415,10.93-24.415,24.415v47.43
	c0,13.483,10.93,24.415,24.415,24.415l0,0c13.483,0,24.415-10.93,24.415-24.415v-47.43
	C191.741,130.558,180.811,119.627,167.328,119.627z"/>
<path style="fill:#56AB8F;" d="M164.127,191.472v-47.43c0-9.682,5.637-18.048,13.808-21.996c-3.208-1.549-6.806-2.419-10.607-2.419
	l0,0c-13.483,0-24.415,10.93-24.415,24.415v47.43c0,13.483,10.93,24.415,24.415,24.415l0,0c3.801,0,7.399-0.869,10.607-2.419
	C169.764,209.52,164.127,201.155,164.127,191.472z"/>
<g>
	<path style="fill:#81DBBA;" d="M240.571,123.592c0-13.483-10.93-24.415-24.415-24.415l0,0c-13.483,0-24.415,10.93-24.415,24.415
		v66.417c0,13.483,10.93,24.415,24.415,24.415l0,0c13.483,0,24.415-10.93,24.415-24.415V123.592z"/>
	<path style="fill:#81DBBA;" d="M289.4,117.047c0-14.455-10.93-26.173-24.415-26.173l0,0c-13.483,0-24.415,11.718-24.415,26.173
		v71.202c0,14.455,10.93,26.173,24.415,26.173l0,0c13.483,0,24.415-11.718,24.415-26.173V117.047z"/>
</g>
<path style="fill:#56AB8F;" d="M262.493,188.248v-71.202c0-10.228,5.476-19.08,13.454-23.386c-3.297-1.779-7.018-2.787-10.961-2.787
	l0,0c-13.483,0-24.415,11.718-24.415,26.173v71.202c0,14.456,10.93,26.173,24.415,26.173l0,0c3.943,0,7.664-1.008,10.961-2.787
	C267.969,207.329,262.493,198.477,262.493,188.248z"/>
<path style="fill:#81DBBA;" d="M338.229,123.257c0-14.455-10.93-26.173-24.415-26.173l0,0c-13.483,0-24.415,11.718-24.415,26.173
	v71.202c0,14.455,10.93,26.173,24.415,26.173l0,0c13.483,0,24.415-11.718,24.415-26.173V123.257z"/>
<g>
	<path style="fill:#56AB8F;" d="M311.321,194.458v-71.202c0-10.228,5.476-19.08,13.454-23.386
		c-3.297-1.779-7.018-2.787-10.961-2.787l0,0c-13.483,0-24.415,11.718-24.415,26.173v71.202c0,14.456,10.93,26.173,24.415,26.173
		l0,0c3.943,0,7.664-1.008,10.961-2.787C316.797,213.539,311.321,204.687,311.321,194.458z"/>
	<path style="fill:#56AB8F;" d="M213.885,190.01v-66.418c0-9.496,5.426-17.72,13.342-21.757c-3.324-1.695-7.085-2.657-11.071-2.657
		c-13.483,0-24.415,10.93-24.415,24.415v66.418c0,13.483,10.93,24.415,24.415,24.415c3.988,0,7.748-0.962,11.071-2.657
		C219.311,207.731,213.885,199.506,213.885,190.01z"/>
</g>
<path style="fill:#81DBBA;" d="M340.968,226.245h-42.265c-14.507,0-26.269-11.761-26.269-26.269l0,0
	c0-14.507,11.761-26.269,26.269-26.269h57.448c10.329,0,18.702,8.373,18.702,18.702v33.836h-33.885V226.245z"/>
<g>
	<path style="fill:#56AB8F;" d="M296.764,199.977L296.764,199.977c0-14.507,11.761-26.268,26.269-26.268h-24.332
		c-14.507,0-26.268,11.761-26.268,26.268l0,0c0,14.508,11.761,26.269,26.268,26.269h24.332
		C308.525,226.246,296.764,214.484,296.764,199.977z"/>
	<path style="fill:#56AB8F;" d="M176.981,429.105c6.342,7.908,16.086,12.978,27.023,12.978c19.154,0,34.662-15.521,34.662-34.662
		s-15.508-34.662-34.662-34.662c-10.938,0-20.682,5.071-27.023,12.978"/>
	<circle style="fill:#56AB8F;" cx="268.521" cy="352.54" r="20.218"/>
</g>
<path d="M60.909,222.429c4.2,0,7.604-3.405,7.604-7.604v-20.15c0-4.199-3.404-7.604-7.604-7.604s-7.604,3.405-7.604,7.604v20.15
	C53.305,219.024,56.709,222.429,60.909,222.429z"/>
<path d="M60.909,276.679c4.2,0,7.604-3.405,7.604-7.604v-20.15c0-4.199-3.404-7.604-7.604-7.604s-7.604,3.405-7.604,7.604v20.15
	C53.305,273.275,56.709,276.679,60.909,276.679z"/>
<path d="M77.96,239.48h20.149c4.2,0,7.604-3.405,7.604-7.604c0-4.199-3.404-7.604-7.604-7.604H77.96c-4.2,0-7.604,3.405-7.604,7.604
	C70.356,236.075,73.759,239.48,77.96,239.48z"/>
<path d="M23.709,239.48h20.15c4.2,0,7.604-3.405,7.604-7.604c0-4.199-3.404-7.604-7.604-7.604h-20.15
	c-4.2,0-7.604,3.405-7.604,7.604C16.105,236.075,19.509,239.48,23.709,239.48z"/>
<path d="M365.72,107.975l17.764,3.601c14.544,2.948,25.846,14.251,28.794,28.795l3.602,17.764
	c1.478,7.291,7.706,12.383,15.145,12.383c7.439,0,13.667-5.093,15.145-12.383l3.602-17.764
	c2.948-14.544,14.251-25.846,28.794-28.795l17.764-3.601c7.291-1.478,12.382-7.706,12.382-15.146
	c0-7.439-5.091-13.667-12.382-15.145l-17.764-3.601c-14.544-2.948-25.845-14.251-28.794-28.795l-3.602-17.764
	c-1.478-7.292-7.706-12.383-15.145-12.383c-7.439,0-13.667,5.092-15.145,12.383l-3.602,17.764
	c-2.947,14.544-14.251,25.846-28.794,28.795l-17.764,3.6c-7.291,1.478-12.382,7.706-12.382,15.145
	C353.338,100.267,358.428,106.495,365.72,107.975z M368.741,92.587l17.764-3.601c20.546-4.166,36.513-20.132,40.677-40.678
	l3.602-17.764c0.018-0.088,0.036-0.147,0.038-0.168c0.121-0.044,0.344-0.044,0.376-0.051c0.001,0,0.035,0.062,0.067,0.22
	l3.602,17.764c4.165,20.546,20.131,36.512,40.677,40.678l17.764,3.601c0.088,0.018,0.147,0.036,0.168,0.039
	c0.044,0.121,0.045,0.344,0.052,0.377c-0.001,0-0.063,0.035-0.22,0.067l-17.764,3.601c-20.546,4.165-36.512,20.132-40.677,40.678
	l-3.602,17.764c-0.018,0.088-0.036,0.147-0.038,0.168c-0.121,0.044-0.344,0.044-0.376,0.051c-0.001,0-0.035-0.062-0.067-0.22
	l-3.602-17.764c-4.164-20.545-20.131-36.512-40.677-40.678l-17.764-3.602c-0.088-0.018-0.147-0.037-0.168-0.039
	c-0.044-0.121-0.045-0.344-0.052-0.377C368.522,92.654,368.584,92.62,368.741,92.587z"/>
<path d="M504.396,481.654H330.043v-62.912c0-4.199-3.404-7.604-7.604-7.604s-7.604,3.405-7.604,7.604v62.912H184.585v-36.693
	c5.915,3.067,12.54,4.728,19.419,4.728c23.305,0,42.266-18.96,42.266-42.266c0-23.305-18.96-42.266-42.266-42.266
	c-6.88,0-13.505,1.661-19.419,4.728v-40.733c0-1.744-0.599-3.435-1.698-4.789c-20.873-25.744-32.37-58.174-32.37-91.317v-14.338
	c4.89,3.029,10.649,4.783,16.811,4.783c10.123,0,19.159-4.729,25.03-12.087c5.865,6.518,14.36,10.624,23.798,10.624
	c9.776,0,18.536-4.408,24.415-11.336c5.878,6.927,14.638,11.334,24.413,11.334c2.498,0,4.947-0.289,7.329-0.848
	c3.089,3.837,6.994,6.99,11.452,9.19c-24.591,6.829-42.699,29.403-42.699,56.141c0,4.199,3.404,7.604,7.604,7.604
	c4.2,0,7.604-3.405,7.604-7.604c0-23.745,19.317-43.062,43.062-43.062h12.427c4.2,0,7.604-3.405,7.604-7.604v-1.993h21.601
	c4.2,0,7.604-3.405,7.604-7.604c0-4.199-3.404-7.604-7.604-7.604h-42.266c-10.291,0-18.664-8.372-18.664-18.665
	c0-10.292,8.373-18.664,18.664-18.664h57.448c6.12,0,11.098,4.979,11.098,11.098v57.907c0,22.113-10.758,42.967-28.773,55.782
	l-0.191,0.136c-14.683,10.444-23.45,27.437-23.45,45.455v41.704c0,4.199,3.404,7.604,7.604,7.604s7.604-3.405,7.604-7.604v-41.704
	c0-13.106,6.376-25.466,17.051-33.059l0.191-0.136c22.024-15.665,35.171-41.152,35.171-68.178v-57.907
	c0-14.505-11.801-26.306-26.306-26.306h-10.318v-42.848c0-17.655-14.363-32.019-32.019-32.019c-8.097,0-15.496,3.027-21.14,8.001
	c-5.55-9.538-15.879-15.97-27.689-15.97c-11.901,0-22.299,6.531-27.817,16.194c-5.628-4.907-12.975-7.89-21.012-7.89
	c-15.473,0-28.415,11.032-31.379,25.643c-5.024-3.279-11.016-5.194-17.45-5.194c-17.655,0-32.019,14.363-32.019,32.019v89.004
	c0,35.709,12.08,70.673,34.068,98.765v149.843H7.604c-4.2,0-7.604,3.405-7.604,7.604c0,4.199,3.404,7.604,7.604,7.604h496.792
	c4.2,0,7.604-3.405,7.604-7.604C512,485.056,508.596,481.654,504.396,481.654z M313.814,106.446c9.27,0,16.81,7.541,16.81,16.811
	v0.279c0,0.02-0.003,0.04-0.003,0.059v42.509h-31.919c-0.569,0-1.135,0.015-1.696,0.043v-42.553c0-0.013-0.002-0.026-0.002-0.04
	v-0.299C297.004,113.987,304.546,106.446,313.814,106.446z M248.175,115.288c0-9.27,7.541-16.811,16.81-16.811
	c9.269,0,16.811,7.541,16.811,16.811v7.969v4.902v42.485c-10.131,5.861-16.966,16.811-16.966,29.333
	c0,2.333,0.237,4.611,0.688,6.813c-0.178,0.005-0.354,0.028-0.534,0.028c-9.257,0-16.788-7.52-16.81-16.771
	c0-0.012,0.001-0.024,0.001-0.038V163.36v-39.768L248.175,115.288L248.175,115.288z M199.345,123.592
	c0-9.27,7.541-16.811,16.811-16.811c9.26,0,16.794,7.526,16.81,16.781c0,0.01-0.001,0.02-0.001,0.029v66.414
	c0,0.014,0.001,0.027,0.001,0.042c-0.021,9.251-7.552,16.772-16.809,16.772c-9.27,0-16.811-7.541-16.811-16.811v-28.825v-37.592
	H199.345z M150.517,144.042c0-9.27,7.541-16.811,16.811-16.811s16.81,7.541,16.81,16.811v17.143v28.825v1.462
	c0,9.27-7.541,16.811-16.81,16.811s-16.811-7.541-16.811-16.811v-30.288V144.042z M204.004,380.365
	c14.92,0,27.058,12.138,27.058,27.058s-12.138,27.058-27.058,27.058c-7.395,0-14.34-2.983-19.419-8.249v-37.619
	C189.665,383.347,196.609,380.365,204.004,380.365z"/>
<path d="M268.516,324.721c-15.341,0-27.821,12.482-27.821,27.822s12.482,27.822,27.821,27.822c15.34,0,27.821-12.482,27.821-27.822
	S283.857,324.721,268.516,324.721z M268.516,365.158c-6.955,0-12.613-5.659-12.613-12.614s5.658-12.614,12.613-12.614
	c6.955,0,12.613,5.659,12.613,12.614S275.471,365.158,268.516,365.158z"/>
<path d="M291.204,416.676c-3.724-5.666-12.701-3.623-13.814,2.972c-1.116,6.613,6.629,11.334,12.021,7.359
	C292.636,424.629,293.401,420.005,291.204,416.676z"/>
<path d="M189.149,276.115c-1.701-2.589-4.974-3.877-7.988-3.193c-3.152,0.716-5.59,3.432-5.895,6.666
	c-0.285,3.027,1.287,6.018,3.98,7.449c2.924,1.553,6.61,1.014,8.961-1.321C190.75,283.188,191.111,279.09,189.149,276.115z"/>
<path d="M139.986,426.849c4.2,0,7.604-3.405,7.604-7.604v-72.994c0-4.199-3.404-7.604-7.604-7.604c-4.2,0-7.604,3.405-7.604,7.604
	v72.994C132.382,423.445,135.786,426.849,139.986,426.849z"/>
<path d="M400.029,309.571c-4.2,0-7.604,3.405-7.604,7.604v89.904c0,4.199,3.404,7.604,7.604,7.604c4.2,0,7.604-3.405,7.604-7.604
	v-89.904C407.633,312.975,404.229,309.571,400.029,309.571z"/>
<path d="M407.633,236.759c0-4.199-3.404-7.604-7.604-7.604c-4.2,0-7.604,3.405-7.604,7.604v55.067c0,4.199,3.404,7.604,7.604,7.604
	c4.2,0,7.604-3.405,7.604-7.604V236.759z"/>
<path d="M355.928,340.168v95.806c0,4.199,3.404,7.604,7.604,7.604s7.604-3.405,7.604-7.604v-95.806c0-4.199-3.404-7.604-7.604-7.604
	S355.928,335.969,355.928,340.168z"/>
<g>
</g>
<g>
</g>
<g>
</g>
<g>
</g>
<g>
</g>
<g>
</g>
<g>
</g>
<g>
</g>
<g>
</g>
<g>
</g>
<g>
</g>
<g>
</g>
<g>
</g>
<g>
</g>
<g>
</g>
</svg>
